<svg width="16" height="17" viewBox="0 0 16 17" fill="currentColor" xmlns="http://www.w3.org/2000/svg">
<path fill-rule="evenodd" clip-rule="evenodd" d="M5.9987 3.83329H9.9987V3.50308C9.9987 3.30932 10.1493 3.16663 10.3352 3.16663H10.9956C11.1893 3.16663 11.332 3.31726 11.332 3.50308V3.83329H12.5032C12.8673 3.83329 13.1654 4.13146 13.1654 4.49926V5.16732C13.1654 5.53819 12.8689 5.83329 12.5032 5.83329H3.49415C3.13014 5.83329 2.83203 5.53513 2.83203 5.16732V4.49926C2.83203 4.1284 3.12847 3.83329 3.49415 3.83329H4.66536V3.50308C4.66536 3.30932 4.816 3.16663 5.00182 3.16663H5.66224C5.85601 3.16663 5.9987 3.31726 5.9987 3.50308V3.83329ZM3.66849 6.49996H4.32891C4.52267 6.49996 4.66536 6.6506 4.66536 6.83642V7.49684C4.66536 7.6906 4.51473 7.83329 4.32891 7.83329H3.66849C3.47472 7.83329 3.33203 7.68266 3.33203 7.49684V6.83642C3.33203 6.64265 3.48267 6.49996 3.66849 6.49996ZM5.66849 6.49996H6.32891C6.52267 6.49996 6.66536 6.6506 6.66536 6.83642V7.49684C6.66536 7.6906 6.51473 7.83329 6.32891 7.83329H5.66849C5.47472 7.83329 5.33203 7.68266 5.33203 7.49684V6.83642C5.33203 6.64265 5.48267 6.49996 5.66849 6.49996ZM7.66849 6.49996H8.32891C8.52267 6.49996 8.66536 6.6506 8.66536 6.83642V7.49684C8.66536 7.6906 8.51473 7.83329 8.32891 7.83329H7.66849C7.47472 7.83329 7.33203 7.68266 7.33203 7.49684V6.83642C7.33203 6.64265 7.48267 6.49996 7.66849 6.49996ZM3.66849 8.49996H4.32891C4.52267 8.49996 4.66536 8.6506 4.66536 8.83642V9.49684C4.66536 9.6906 4.51473 9.83329 4.32891 9.83329H3.66849C3.47472 9.83329 3.33203 9.68266 3.33203 9.49684V8.83642C3.33203 8.64265 3.48267 8.49996 3.66849 8.49996ZM5.66849 8.49996H6.32891C6.52267 8.49996 6.66536 8.6506 6.66536 8.83642V9.49684C6.66536 9.6906 6.51473 9.83329 6.32891 9.83329H5.66849C5.47472 9.83329 5.33203 9.68266 5.33203 9.49684V8.83642C5.33203 8.64265 5.48267 8.49996 5.66849 8.49996ZM7.66849 8.49996H8.32891C8.52267 8.49996 8.66536 8.6506 8.66536 8.83642V9.49684C8.66536 9.6906 8.51473 9.83329 8.32891 9.83329H7.66849C7.47472 9.83329 7.33203 9.68266 7.33203 9.49684V8.83642C7.33203 8.64265 7.48267 8.49996 7.66849 8.49996ZM3.66849 10.5H4.32891C4.52267 10.5 4.66536 10.6506 4.66536 10.8364V11.4968C4.66536 11.6906 4.51473 11.8333 4.32891 11.8333H3.66849C3.47472 11.8333 3.33203 11.6827 3.33203 11.4968V10.8364C3.33203 10.6426 3.48267 10.5 3.66849 10.5ZM5.66849 10.5H6.32891C6.52267 10.5 6.66536 10.6506 6.66536 10.8364V11.4968C6.66536 11.6906 6.51473 11.8333 6.32891 11.8333H5.66849C5.47472 11.8333 5.33203 11.6827 5.33203 11.4968V10.8364C5.33203 10.6426 5.48267 10.5 5.66849 10.5ZM7.66849 10.5H8.32891C8.52267 10.5 8.66536 10.6506 8.66536 10.8364V11.4968C8.66536 11.6906 8.51473 11.8333 8.32891 11.8333H7.66849C7.47472 11.8333 7.33203 11.6827 7.33203 11.4968V10.8364C7.33203 10.6426 7.48267 10.5 7.66849 10.5ZM9.66849 6.49996H10.3289C10.5227 6.49996 10.6654 6.6506 10.6654 6.83642V7.49684C10.6654 7.6906 10.5147 7.83329 10.3289 7.83329H9.66849C9.47472 7.83329 9.33203 7.68266 9.33203 7.49684V6.83642C9.33203 6.64265 9.48267 6.49996 9.66849 6.49996ZM9.66849 8.49996H10.3289C10.5227 8.49996 10.6654 8.6506 10.6654 8.83642V9.49684C10.6654 9.6906 10.5147 9.83329 10.3289 9.83329H9.66849C9.47472 9.83329 9.33203 9.68266 9.33203 9.49684V8.83642C9.33203 8.64265 9.48267 8.49996 9.66849 8.49996ZM9.66849 10.5H10.3289C10.5227 10.5 10.6654 10.6506 10.6654 10.8364V11.4968C10.6654 11.6906 10.5147 11.8333 10.3289 11.8333H9.66849C9.47472 11.8333 9.33203 11.6827 9.33203 11.4968V10.8364C9.33203 10.6426 9.48267 10.5 9.66849 10.5ZM11.6685 10.5H12.3289C12.5227 10.5 12.6654 10.6506 12.6654 10.8364V11.4968C12.6654 11.6906 12.5147 11.8333 12.3289 11.8333H11.6685C11.4747 11.8333 11.332 11.6827 11.332 11.4968V10.8364C11.332 10.6426 11.4827 10.5 11.6685 10.5ZM3.66849 12.5H4.32891C4.52267 12.5 4.66536 12.6506 4.66536 12.8364V13.4968C4.66536 13.6906 4.51473 13.8333 4.32891 13.8333H3.66849C3.47472 13.8333 3.33203 13.6827 3.33203 13.4968V12.8364C3.33203 12.6426 3.48267 12.5 3.66849 12.5ZM5.66849 12.5H6.32891C6.52267 12.5 6.66536 12.6506 6.66536 12.8364V13.4968C6.66536 13.6906 6.51473 13.8333 6.32891 13.8333H5.66849C5.47472 13.8333 5.33203 13.6827 5.33203 13.4968V12.8364C5.33203 12.6426 5.48267 12.5 5.66849 12.5ZM7.66849 12.5H8.32891C8.52267 12.5 8.66536 12.6506 8.66536 12.8364V13.4968C8.66536 13.6906 8.51473 13.8333 8.32891 13.8333H7.66849C7.47472 13.8333 7.33203 13.6827 7.33203 13.4968V12.8364C7.33203 12.6426 7.48267 12.5 7.66849 12.5ZM9.66849 12.5H10.3289C10.5227 12.5 10.6654 12.6506 10.6654 12.8364V13.4968C10.6654 13.6906 10.5147 13.8333 10.3289 13.8333H9.66849C9.47472 13.8333 9.33203 13.6827 9.33203 13.4968V12.8364C9.33203 12.6426 9.48267 12.5 9.66849 12.5ZM11.6685 12.5H12.3289C12.5227 12.5 12.6654 12.6506 12.6654 12.8364V13.4968C12.6654 13.6906 12.5147 13.8333 12.3289 13.8333H11.6685C11.4747 13.8333 11.332 13.6827 11.332 13.4968V12.8364C11.332 12.6426 11.4827 12.5 11.6685 12.5ZM11.6685 8.49996H12.3289C12.5227 8.49996 12.6654 8.6506 12.6654 8.83642V9.49684C12.6654 9.6906 12.5147 9.83329 12.3289 9.83329H11.6685C11.4747 9.83329 11.332 9.68266 11.332 9.49684V8.83642C11.332 8.64265 11.4827 8.49996 11.6685 8.49996ZM11.6685 6.49996H12.3289C12.5227 6.49996 12.6654 6.6506 12.6654 6.83642V7.49684C12.6654 7.6906 12.5147 7.83329 12.3289 7.83329H11.6685C11.4747 7.83329 11.332 7.68266 11.332 7.49684V6.83642C11.332 6.64265 11.4827 6.49996 11.6685 6.49996Z" fill="#5F5E5E"/>
</svg>
