<svg width="119" height="100" fill="none" xmlns="http://www.w3.org/2000/svg"><path d="M48.522 77.279a6.652 6.652 0 0 0-4.979 2.228 6.523 6.523 0 0 0-1.386 2.449 6.531 6.531 0 0 0-.304 1.984c0 .816.144 1.61.429 2.36a6.628 6.628 0 0 0 1.526 2.358l11.28 11.28 11.283-11.28c2.598-2.6 2.598-6.832 0-9.432-2.6-2.596-6.83-2.596-9.431 0l-1.851 1.852-1.852-1.852a6.653 6.653 0 0 0-4.715-1.947Z" fill="#5F5E5E"/><path d="M2.68 68.846c0-24.837 16.03-45.928 38.309-53.493M14.286 68.201c0-12.44 5.027-23.707 13.16-31.878M102.195 32.27c8.382 9.855 13.441 22.624 13.441 36.576M95.647 41.117a44.988 44.988 0 0 1 9.012 27.084" stroke="#5F5E5E" stroke-width="5" stroke-miterlimit="10" stroke-linecap="round" stroke-linejoin="round"/><path d="M73.613 80.502c.846 2.58.049 6.798-2.41 9.259l-3.477 3.638H118V80.502H73.613ZM39.446 89.437c-.953-.953-1.676-2.31-2.148-3.561-.4-1.056-.604-1.972-.604-3.12 0-.837.117-1.61.337-2.254H0v12.896h42.923l-3.477-3.96ZM101.47.063l3.248 22.306-9.475 1.38s-6.181 19.848-10.171 25.67c-3.99 5.822-19.687 21.816-19.687 21.816s-3.504 2.122-3.426-3.802c.078-5.924 6.485-15.458 7.308-17.19.822-1.733 1.171-4.875-.676-6.488-1.848-1.612-8.421-5.224-9.606-5.052-1.184.172-15.833 7.546-17.764 9.978-1.93 2.432-1.668 2.393-.846 7.111.821 4.719 4.498 14.531 2.273 16.2-2.225 1.667-8.245.93-12.112-17.32 0 0-3.617-9.15 3.173-16.052C40.498 31.72 63.833 5.541 80.415 3.127L101.47.063Z" fill="#5F5E5E"/><path d="M47.248 46.46s-1.85 1.128-3.493 2.323c-3.555 2.583-3.51 3.232-.853 12.824 2.52 9.103 4.15 9.122 5.805 8.377 1.655-.744 1.882-2.609-.52-12.573-2.404-9.965-2.006-8.931-.94-10.951ZM52.577 43.265s-4.737 3.462-4.605 5.408c.132 1.947 2.575 18.725 5.754 18.06 3.179-.663.526-9.197-1.258-16.95 0 0-1.545-5.42.109-6.518Z" fill="#5F5E5E"/></svg>