<svg width="118" height="118" fill="none" xmlns="http://www.w3.org/2000/svg"><mask id="a" style="mask-type:luminance" maskUnits="userSpaceOnUse" x="0" y="0" width="118" height="118"><path d="M59 118C26.467 118 0 91.532 0 59 0 26.467 26.467 0 59 0s59 26.468 59 59c0 32.533-26.467 59-59 59Z" fill="#fff"/></mask><g mask="url(#a)" stroke="#5F5E5E" stroke-miterlimit="10" stroke-linecap="round" stroke-linejoin="round"><path d="M18.933 31.888c8.568-13.307 23.512-22.12 40.515-22.12 16.566 0 31.178 8.366 39.843 21.103" stroke-width="4.885"/><path d="M38.788 27.01c5.599-4.77 12.383-7.596 19.72-7.681 8.289-.096 15.953 3.322 22.056 9.127" stroke-width="5.422"/></g><mask id="b" style="mask-type:luminance" maskUnits="userSpaceOnUse" x="0" y="0" width="118" height="118"><path d="M59 118C26.467 118 0 91.532 0 59 0 26.467 26.467 0 59 0s59 26.468 59 59c0 32.533-26.467 59-59 59Z" fill="#fff"/></mask><g mask="url(#b)"><path d="M52.333 59.688c-1.69-.734-3.163-1.276-4.544-1.992-3.446-1.787-5.879-4.478-6.657-8.354-.24-1.192-.82-1.781-1.76-2.38-2.906-1.849-5.419-4.193-7.7-6.746-1.82-2.035-1.641-2.963.78-3.91 8.986-3.516 18.053-3.551 26.9.287 3.982 1.728 6.814 4.974 7.973 9.315.479 1.794 1.034 1.708 2.16.549 1.175-1.211 2.114-2.576 2.982-4.006.823-1.355 1.688-2.683 2.93-3.702 1.764-1.448 5.19-2.075 7.59-1.057 1.974.837 3.97 2.894 6.244 2.713.192 1.392-6.294 4.224-7.448 5.135-1.795 1.416-2.341 3.183-2.5 5.263-.115 1.488-.204 2.984-.438 4.456-1.417 8.907-9.07 14.504-17.918 12.792-2.695-.52-2.958.386-2.831 2.556.206 3.536-.078 7.032-1.63 10.3-1.563 3.289-3.318 3.377-6.588 2.052-2.785-1.13-5.142-3.033-8.023-3.878-2.373-.697-3.293-2.323-2.644-4.914 1.41-5.635 5.23-9.416 9.869-12.521.99-.664 2.041-1.233 3.253-1.958Z" fill="#5F5E5E"/></g><mask id="c" style="mask-type:luminance" maskUnits="userSpaceOnUse" x="0" y="0" width="118" height="118"><path d="M59 118C26.467 118 0 91.532 0 59 0 26.467 26.467 0 59 0s59 26.468 59 59c0 32.533-26.467 59-59 59Z" fill="#fff"/></mask><g mask="url(#c)" fill="#5F5E5E"><path d="M55.515 110.293c.025-4-.79-6.299-2.571-9.196-3.975-6.462-12.73-14.1-15.906-18.708-3.176-4.608-4.998-9.477-8.123-15.311-3.125-5.836-6.356-2.39-6.356-2.39.595 5.784 9.145 20.257 9.145 20.257 4.4 6.938 2.298 6.492 2.298 6.492s-5.4-8.766-6.617-10.92c-1.216-2.153-1.849-5.275-3.215-7.546-1.366-2.27-6.205-4.544-7.638-6.915-1.432-2.372-.83-4.507.811-12.683 1.642-8.176-5-6.647-5-6.647-1.672 4.005-4.689 18.588-3.557 22.894 1.132 4.306 9.85 15.912 17.604 25.606 7.26 9.079 9.892 15.381 10.463 20.401v4.952h18.858v-10.286h-.196ZM61.609 109.15c-.026-4 .789-6.351 2.571-9.247 3.976-6.462 12.73-14.125 15.906-18.734 3.176-4.608 4.998-9.49 8.123-15.325 3.125-5.835 6.356-2.394 6.356-2.394-.596 5.783-9.146 20.253-9.146 20.253-4.4 6.938-2.297 6.49-2.297 6.49s5.4-8.767 6.617-10.92c1.217-2.155 1.847-5.277 3.215-7.547 1.366-2.271 6.204-4.544 7.638-6.915 1.433-2.372.83-4.507-.812-12.683s5.002-6.647 5.002-6.647c1.672 4.005 4.687 18.587 3.556 22.894-1.132 4.306-9.844 15.912-17.597 25.606-7.26 9.079-9.885 15.381-10.456 20.4v5.055H61.426V109.15h.183Z"/></g><path d="M26.05 113.406s.543-15.237-11.12-16.996c0 0-.316 14.292 11.12 16.996ZM19.084 116.029s-4.159-10.043-12.244-7.73c0 0 4.026 9.362 12.244 7.73ZM89.647 113.978s-.543-15.237 11.121-16.996c0 0 .316 14.291-11.12 16.996ZM96.614 116.6s4.159-10.042 12.244-7.73c0 0-4.026 9.362-12.244 7.73Z" fill="#5F5E5E"/></svg>