<svg width="118" height="118" fill="none" xmlns="http://www.w3.org/2000/svg"><mask id="a" style="mask-type:luminance" maskUnits="userSpaceOnUse" x="0" y="-1" width="118" height="120"><path d="M.752 49.642C5.912 17.525 36.24-4.408 68.357.752c32.118 5.16 54.05 35.487 48.891 67.605-5.16 32.119-35.488 54.051-67.605 48.891-32.118-5.16-54.05-35.487-48.89-67.606Z" fill="#fff"/></mask><g mask="url(#a)"><path d="M68.291 34.366c-.197.628-.635.795-1.118.835-.976.08-2.163.17-2.158 1.35.004 1.083 1.237.423 1.875.708 1.25.56 2.236 1.403 1.941 2.801-.922 4.38 2.448 6.83 4.364 9.897.46.737.939 1.331.985 2.22.035.683-.444 1.636.707 1.858.93.178 1.234-.699 1.79-1.181 1.011-.878.276-1.37-.228-2.102-.681-.992-2.343-1.785-.318-3.39 2.311-1.83 2.64.088 3.612 1.66l1.282-3.823c2.635 4.289 3.465 8.489 3.311 12.864-.149 4.227-1.198 8.262-3.482 11.912-1.056 1.688-2.003 2.617-3.133.073-.3-.676-.76-1.282-1.177-1.972-1.284.968-1.943 1.724-.077 2.625.471.228 1.485 1.256.427 1.595-.512.164-1.687 1.754-2.464.05-.272-.598-.975-1.272-.846-1.734.966-3.451-1.643-5.427-3.07-7.892-.204-.354-.471-.693-.869-.51-.542.249-.465.807-.278 1.245.438 1.026 1.235 1.81 1.505 3.01.646 2.88-2.068 3.892-3.018 5.862-.743 1.543-1.69 2.839-4.247 2.214-1.6-.39-3.693 1.181-5.552 1.909-.907.355-.588 1.11-.378 1.705.31.884.556 1.892 1.495 2.338.994.47.978-.49 1.297-1.022.521-.873 1.344-1.233 2.406-1.273-1.063 3.358-2.04 4.075-5.154 3.89-17.45-1.04-28.493-20.22-20.633-35.838 1.335-2.652 3.249-2.602 5.511-.523 2.757 2.534 4.79 5.917 8.464 7.443.844.35 1.855.928 2.218-.038.988-2.628 3.648-3.402 5.347-5.224 1.36-1.46 2.462-3.347 1.45-4.724-1.108-1.508-3.512-3.434-5.413-2.115-4.162 2.887-8.572 1.268-12.865 1.6-.631.049-1.44.28-1.746-.488-.114-.287.286-.843.548-1.207 5.303-7.35 19.048-10.958 27.173-7.135.22.106.366.37.516.527ZM55.17 77.877c.756-2.799 2.928-3.134 4.865-3.76 1.256-.405 3.317-.422 3.652-1.2 1.25-2.9 3.147-5.566 4.033-8.486.833-2.75-1.596-4.987-3.863-6.368-3.201-1.95-6.073-.203-6.401 3.631-.173 2.012-1.154 2.75-3.187 3.187-3.363.722-6.534-1.034-9.806-.292-1.063.24-2.425.124-2.798 1.52-.341 1.277.487 2.157 1.37 2.913.644.55 1.421.954 2.02 1.543 2.969 2.917 8.248 2.496 10.115 7.312Z" fill="#5F5E5E"/></g><mask id="b" style="mask-type:luminance" maskUnits="userSpaceOnUse" x="0" y="-1" width="118" height="120"><path d="M.752 49.642C5.912 17.525 36.24-4.408 68.357.752c32.118 5.16 54.05 35.487 48.891 67.605-5.16 32.119-35.488 54.051-67.605 48.891-32.118-5.16-54.05-35.487-48.89-67.606Z" fill="#fff"/></mask><g mask="url(#b)" fill="#5F5E5E"><path d="M20.419 59.772s1.38 1.516 1.84-6.31c0 0 1.447-15.975 4.209-20.785 0 0 4.427-.872 3.594 5.388-.833 6.26-2.128 11.038-2.238 16.377-.11 5.34 2.425 16.117 1.901 23.337-.523 7.218-5.012 12.138-13.549 16.995-8.537 4.858-16.455 9.307-16.455 9.307l.7-19.105s5.68.209 8.416-3.914c2.736-4.121 4.27-10.7 3.67-22.53-.6-11.827-.98-25.743.544-29.708 1.524-3.967 11.987-13.578 15.514-15.748 0 0 5.998 2.519.169 7.935-5.829 5.416-7.485 6.734-7.697 9.369-.212 2.634 2.268 7.092 2.06 9.612-.207 2.52-1.457 5.289-1.716 7.635-.259 2.345-.962 12.145-.962 12.145ZM99.065 57.615s-1.38-1.516-1.84 6.31c0 0-1.447 15.974-4.21 20.785 0 0-4.426.872-3.593-5.388.832-6.26 2.128-11.038 2.238-16.377.11-5.34-2.425-16.117-1.901-23.337.522-7.219 5.011-12.139 13.549-16.995 8.537-4.858 16.455-9.308 16.455-9.308l-.7 19.105s-5.68-.208-8.417 3.915c-2.736 4.121-4.27 10.7-3.67 22.529.601 11.827.981 25.744-.543 29.709-1.524 3.966-11.988 13.578-15.515 15.747 0 0-5.997-2.518-.168-7.934s7.485-6.735 7.697-9.37c.211-2.634-2.269-7.091-2.06-9.611.207-2.52 1.457-5.29 1.716-7.635.259-2.346.962-12.145.962-12.145Z"/></g><path d="M59.914 26.822s7.979-10.907.298-18c0 0-7.342 10.326-.298 18ZM53.18 26.752s.667-9.61-6.661-10.97c0 0-.504 9.019 6.66 10.97ZM65.143 28.343s9.048-3.31 7.3-10.557c0 0-8.44 3.219-7.3 10.557ZM59.914 88.397s7.979 10.908.298 18.001c0 0-7.342-10.327-.298-18.001ZM53.18 88.466s.667 9.611-6.661 10.97c0 0-.504-9.018 6.66-10.97ZM65.143 86.876s9.048 3.311 7.3 10.557c0 0-8.44-3.219-7.3-10.557Z" fill="#5F5E5E"/></svg>