<svg width="118" height="124" fill="none" xmlns="http://www.w3.org/2000/svg"><path d="M24.267 58.155c0-8.607-.016-17.213.018-25.819.006-1.33.185-2.667.387-3.99.358-2.347 2.485-3.847 5.118-3.687 2.423.146 4.493 1.902 4.43 4.048-.157 5.415-.011 10.831-.409 16.248-.302 4.117-.06 8.26-.06 12.794.473-1.85.863-3.298 1.211-4.752 1.462-6.112 2.9-12.23 4.371-18.34.615-2.554 3.112-3.933 6.16-3.455 2.609.41 3.983 2.384 3.434 4.915-.19.876-.373 1.754-.516 2.635-1.763 10.862-5.41 21.515-5.278 32.59.03 2.466 1.195 3.158 3.766 1.982.937-.43 1.778-1.005 2.644-1.534 2.709-1.655 4.516-4.022 6.875-5.95 2.379-1.945 5.064-3.362 8.662-2.703 1.336.245 2.72.498 3.082 1.818.373 1.362-.46 2.329-1.826 2.938-2.983 1.328-4.939 3.416-6.484 5.807-4.994 7.726-10.683 14.973-19.813 19.894-1.049.565-1.048 1.485-1.076 2.39-.065 2.15-.174 4.301-.224 6.453-.036 1.571-.805 2.376-2.85 2.575-8.155.794-16.124.364-23.963-1.802-2.242-.619-2.81-1.492-2.593-3.41.314-2.77 1.253-5.721-.312-8.348-4.493-7.546-4.62-15.631-4.58-23.726.01-1.941-.008-3.826-.484-5.723-1.275-5.085-2.491-10.18-3.759-15.266-.204-.817-.345-1.605.069-2.4.874-1.676 2.377-2.618 4.624-2.478 2.388.148 3.684 1.404 4.232 3.224 1.334 4.427 2.63 8.86 3.941 13.292-.669-7.268-1.606-14.487-2.584-21.703-.373-2.753 1.213-4.807 4.053-5.116 3.089-.336 5.185 1.192 5.62 4.176 1.094 7.503 2.158 15.01 3.234 22.515.295-.032.587-.062.88-.092Zm-12.56 22.111c3.314 2.929 7.706 4.551 11.716 6.637.587.305 1.198.29 1.78-.01 3.937-2.043 8.258-3.627 11.52-6.484 3.348-2.933 3.626-7.376.685-10.565-2.342-2.537-7.523-2.834-10.857-.368-1.68 1.242-2.53 1.45-4.21-.072-2.31-2.09-5.51-1.976-8.521-1.067-2.898.875-4.627 3.574-4.636 7.011-.151 1.778.856 3.446 2.523 4.918Z" fill="#5F5E5E"/><path d="M93.733 63.173c0 8.606.017 17.213-.017 25.819-.006 1.33-.185 2.667-.387 3.99-.359 2.347-2.486 3.847-5.118 3.687-2.424-.147-4.494-1.902-4.431-4.048.158-5.415.012-10.831.41-16.248.302-4.117.06-8.26.06-12.794-.474 1.85-.864 3.298-1.211 4.752-1.463 6.113-2.902 12.23-4.372 18.341-.614 2.553-3.111 3.933-6.16 3.454-2.608-.41-3.982-2.383-3.434-4.914.19-.876.373-1.754.516-2.636 1.764-10.862 5.41-21.515 5.278-32.59-.03-2.465-1.195-3.157-3.765-1.981-.937.429-1.779 1.004-2.645 1.533-2.708 1.656-4.515 4.022-6.874 5.95-2.38 1.945-5.064 3.363-8.662 2.704-1.336-.245-2.72-.499-3.082-1.818-.374-1.362.459-2.33 1.826-2.938 2.983-1.328 4.938-3.416 6.484-5.807 4.994-7.726 10.683-14.974 19.813-19.895 1.048-.565 1.047-1.484 1.075-2.389.066-2.151.174-4.302.224-6.454.036-1.57.806-2.376 2.85-2.575 8.155-.793 16.125-.364 23.963 1.802 2.243.62 2.811 1.493 2.594 3.41-.314 2.77-1.253 5.722.311 8.348 4.493 7.547 4.62 15.632 4.58 23.726-.01 1.942.008 3.826.484 5.724 1.275 5.084 2.491 10.18 3.759 15.265.204.818.345 1.606-.069 2.4-.874 1.677-2.377 2.618-4.624 2.478-2.388-.147-3.684-1.404-4.232-3.224-1.334-4.426-2.63-8.86-3.941-13.291.669 7.267 1.606 14.486 2.584 21.702.373 2.753-1.213 4.808-4.053 5.117-3.089.336-5.185-1.193-5.62-4.176-1.094-7.504-2.157-15.01-3.233-22.516-.295.032-.588.062-.88.092Zm12.561-22.112c-3.315-2.928-7.706-4.551-11.717-6.636-.586-.305-1.196-.291-1.779.01-3.938 2.043-8.258 3.626-11.52 6.484-3.348 2.933-3.626 7.376-.685 10.564 2.341 2.538 7.522 2.834 10.857.369 1.68-1.242 2.53-1.45 4.21.072 2.309 2.09 5.509 1.975 8.521 1.066 2.897-.874 4.626-3.574 4.635-7.01.152-1.778-.855-3.446-2.522-4.919Z" fill="#5F5E5E"/><path d="m61.046 102.519-8.316 17.299M71.39 102.2l1.121 9.917M83.018 100.179 91.2 121M50.94 98.931l-5.96 5.978M60.111 21.242 64.58 3M50 23.069l-3.233-9.595M38.99 26.76 26.465 7.465M70.828 23.295l4.582-6.755" stroke="#5F5E5E" stroke-width="5.422" stroke-miterlimit="10" stroke-linecap="round" stroke-linejoin="round"/></svg>